<?xml version="1.0" encoding="UTF-8"?><svg id="a" xmlns="http://www.w3.org/2000/svg" viewBox="0 0 972 972"><polyline points="515.52 111.94 515.46 112.18 515.39 112.54 515.33 112.96 515.27 113.55 515.27 114.28 515.24 115.11 515.2 116.03 515.2 117.05 515.2 118.16 515.2 119.43 515.2 120.87 515.2 122.57 515.33 124.54 515.46 126.76 515.55 129.31 515.71 132.12 515.77 135.21 515.77 138.64 515.77 142.44 515.77 146.53 515.58 150.97 515.39 155.83 515.17 161.13 514.95 167.08 514.73 173.5 514.54 180.35 514.35 187.58 514.2 194.81 514.04 202.46 513.91 210.59 513.76 219.24 513.57 228.52 513.5 238.04 513.41 247.77 513.38 257.93 513.38 268.61 513.38 279.9 513.38 291.45 513.57 303.33 513.76 315.69 513.94 328.39 514.1 341.53 514.35 355.18 514.57 369.07 514.83 383.06 515.14 397.7 515.39 412.49 515.71 427.25 515.99 442.51 516.24 458.06 516.5 473.81 516.75 489.9 516.94 506.41 517.09 522.99 517.25 539.67 517.38 556.82 517.47 573.73 517.63 590.72 517.76 607.89 517.94 624.57 518.13 641.41 518.29 658.11 518.48 674.24 518.61 690.45 518.73 706.44 518.89 721.8 518.92 736.98 519.02 751.94 519.08 766.28 519.14 780.09 519.24 793.54 519.3 806.31 519.33 818.46 519.33 830.06 519.33 840.85" style="fill:none; stroke:rgba(0,0,0,.52); stroke-width:.78px;"/><polyline points="479.55 715.89 479.27 716.13 479.05 716.31 478.89 716.48 478.76 716.6 478.64 716.67 478.51 716.79 478.42 716.83 478.35 716.88 478.35 716.91 478.35 716.86 478.35 716.74 478.48 716.57 478.92 716.41 479.55 716.13 480.5 715.77 481.69 715.23 483.2 714.52 485.06 713.62 487.17 712.54 489.69 711.26 492.59 709.77 495.87 708.07 499.68 706.13 503.83 703.96 508.31 701.57 513.22 699.12 518.39 696.5 523.99 693.71 530.01 690.64 536.15 687.28 542.54 683.67 549.19 679.87 556.12 675.97 563.46 671.88 571.14 667.58 579.05 663.09 587.08 658.54 595.14 654 602.98 649.58 610.76 645.21 618.61 640.84 626.35 636.47 634.42 632.1 642.45 627.8 650.2 623.62 657.85 619.49 664.94 615.43 671.65 611.43 678.01 607.63 683.93 604.02 689.69 600.71 695.14 597.64 700.34 594.71 705.19 591.94 709.6 589.25 713.66 586.72 717.25 584.41 720.5 582.28 723.49 580.35" style="fill:none; stroke:rgba(0,0,0,.47); stroke-width:.71px;"/><polyline points="329.35 550.46 329.31 550.42 329.31 550.39 329.5 550.46 329.94 550.82 330.54 551.36 331.36 552.12 332.37 553.02 333.63 554.15 335.14 555.4 336.91 556.8 338.92 558.35 341.22 560.06 343.77 561.97 346.54 564.05 349.6 566.31 352.94 568.75 356.59 571.35 360.56 574.2 364.78 577.35 369.31 580.75 374.17 584.48 379.24 588.47 384.62 592.68 390.23 597.19 396.15 601.94 402.29 607.09 408.69 612.59 415.33 618.28 422.23 624.17 429.66 630.17 437.44 636.14 445.44 642.28 453.69 648.64 462.04 655.2 470.26 662.1 478.61 669.19 487.02 676.39 495.55 683.43 504.4 690.5 513.38 697.7 522.29 705.05 531.05 712.58 539.65 720.14 548.18 727.61 556.84 734.67 565.69 741.52 574.54 748.3 583.24 754.98 591.74 761.65 599.65 768.12" style="fill:none; stroke:rgba(0,0,0,.53); stroke-width:.79px;"/><polyline points="467.83 284.81 467.9 284.81 468.4 284.81 469.09 284.74 469.98 284.53 471.02 284.29 472.34 283.98 473.88 283.63 475.68 283.18 477.72 282.57 480.02 281.86 482.73 280.98 485.91 279.9 489.82 278.6 494.48 277.04 499.83 275.29 505.82 273.33 512.4 271.18 519.46 268.87 526.98 266.29 534.76 263.65 542.7 260.91 550.92 258.12 559.55 255.35 568.65 252.54 578.13 249.59 587.77 246.47 597.19 243.26 606.54 239.93 615.99 236.57 625.57 233.2 635.55 229.72 645.66 226.18 655.77 222.61 665.44 219.02 674.95 215.5 684.31 212.17 693.63 209.01 703.17 206.06 712.5 203.2 721.47 200.34 729.69 197.53 737.31 194.81 744.24 192.17 750.61 189.78 756.62 187.56 762.1 185.48 767.02 183.64 771.27 182.03" style="fill:none; stroke:rgba(0,0,0,.41); stroke-width:.62px;"/><polyline points="503.33 479.93 503.11 479.93 503.14 479.93 503.55 479.88 504.21 479.76 504.97 479.62 505.85 479.36 507.02 479.06 508.4 478.61 510.07 478.04 512.12 477.35 514.48 476.55 517.22 475.56 520.37 474.35 523.99 472.87 528.18 471.02 532.91 468.9 537.94 466.46 543.49 463.8 549.54 460.87 556.18 457.7 563.77 454.42 572.12 451.02 581.06 447.43 590.54 443.6 599.99 439.63 609.63 435.45 619.55 431.2 629.66 426.83 640.31 422.22 651.17 417.43 661.79 412.49 672.28 407.57 682.76 402.73 693.22 397.87 703.9 393.05 714.64 388.23 725.03 383.34 735.05 378.61 744.62 373.89 753.79 369.17 762.57 364.68 770.95 360.5 778.76 356.72" style="fill:none; stroke:rgba(0,0,0,.43); stroke-width:.65px;"/><polyline points="714.57 164.83 714.35 165.07 714.2 165.38 714.2 165.69 714.2 166.06 714.26 166.58 714.61 167.22 714.86 168.12 714.95 169.2 715.02 170.41 715.05 171.83 715.14 173.34 715.33 175.06 715.52 177.02 715.71 179.17 715.9 181.56 716.09 184.11 716.28 186.97 716.5 190.18 716.62 193.84 716.62 197.88 716.62 202.23 716.53 207 716.31 212.03 716.09 217.54 715.99 223.42 715.93 229.51 715.93 235.94 715.93 242.46 715.93 249.28 715.93 256.58 715.93 264.47 715.93 272.95 715.93 281.88 715.93 290.91 715.96 300.07 716.09 309.73 716.28 319.94 716.34 330.78 716.34 341.88 716.34 353.43 716.31 365.39 716.06 377.69 715.77 390.28 715.52 403.16 715.17 416.17 714.83 429.4 714.42 442.8 713.94 456.35 713.47 469.96 713.06 483.43 712.56 497.24 712.02 511.13 711.49 525.09 710.86 539.17 710.26 553.49 709.6 567.5 708.97 581.15 708.37 594.71 707.87 607.7 707.33 620.29" style="fill:none; stroke:rgba(0,0,0,.5); stroke-width:.75px;"/><polyline points="313.25 357.05 313.63 357.05 314.2 357.05 315.02 357.07 316.02 357.43 317.19 357.85 318.48 358.42 319.99 359.13 321.66 359.93 323.52 360.85 325.57 361.84 327.83 362.93 330.26 364.13 332.97 365.48 335.8 366.92 338.83 368.48 342.01 370.16 345.22 371.95 348.69 373.87 352.37 375.97 356.31 378.28 360.59 380.81 365.19 383.6 369.94 386.62 374.95 389.93 380.12 393.35 385.47 396.78 391.24 400.23 397.35 403.7 403.68 407.31 410.1 411.17 416.65 415.25 423.3 419.48 430.2 423.83 437.25 428.24 444.4 432.61 451.74 437.01 459.3 441.31 466.98 445.56 474.8 449.91 482.57 454.32 490.32 458.88 498.1 463.61 505.82 468.45 513.44 473.29 521.06 477.99 528.75 482.67 536.28 487.25 543.8 491.65 551.14 496.02 558.39 500.39 565.6 504.78 572.62 509.29 579.39 513.87 585.79 518.29" style="fill:none; stroke:rgba(0,0,0,.41); stroke-width:.61px;"/><polyline points="296.46 156.69 296.31 156.4 296.18 156.17 296.09 155.95 295.99 155.74 295.8 155.55 295.71 155.39 295.58 155.22 295.55 155.13 295.55 155.08 295.55 155.03 295.55 155.01 295.65 155.01 296.06 155.01 296.78 155.29 297.69 155.67 298.83 156.17 300.28 156.8 301.91 157.51 303.9 158.39 306.23 159.43 308.84 160.58 311.77 161.98 314.98 163.56 318.48 165.4 322.32 167.48 326.48 169.8 331.02 172.35 335.99 175.09 341.09 178.04 346.42 181.18 351.99 184.54 357.79 188.08 364.21 191.83 371.05 195.76 378.29 199.75 385.98 203.86 393.94 208.09 402.04 212.46 410.29 217.06 418.76 221.83 427.43 226.68 436.53 231.59 446.01 236.57 455.71 241.63 465.5 246.66 475.2 251.69 485.03 256.7 494.92 261.76 504.97 266.93 515.24 272.17 525.63 277.44 535.61 282.73 545.54 288.09 555.3 293.39 564.75 298.7" style="fill:none; stroke:rgba(0,0,0,.53); stroke-width:.79px;"/><polyline points="363.74 171.66 363.74 171.92 363.74 172.2 363.74 172.46 363.74 172.8 363.74 173.15 363.74 173.55 363.74 173.98 363.8 174.52 363.93 175.16 363.99 175.89 364.09 176.76 364.21 177.71 364.37 178.75 364.5 179.93 364.69 181.23 364.81 182.67 364.94 184.28 365.13 186.12 365.25 188.17 365.41 190.49 365.47 193.09 365.47 195.99 365.47 199.04 365.47 202.3 365.47 205.72 365.47 209.34 365.47 213.33 365.47 217.65 365.47 222.33 365.47 227.31 365.47 232.54 365.47 238.04 365.47 243.73 365.5 249.64 365.54 255.8 365.54 262.2 365.54 269.03 365.54 276.19 365.54 283.7 365.54 291.35 365.5 299.22 365.41 307.3 365.28 315.59 365.22 324.24 365.22 333.14 365.22 342.07 365.38 351.07 365.69 360.21 366.04 369.35 366.39 378.73 366.73 388.11 367.11 397.49 367.52 406.96 367.9 416.53 368.28 426.28 368.62 436.06 368.94 445.87 369.25 455.76 369.57 465.76 369.88 475.87 370.23 485.91 370.64 495.92 371.05 505.89 371.52 515.81 371.96 525.8 372.4 535.61 372.81 545.22 373.22 554.62 373.63 563.81 374.1 572.88 374.57 581.72 375.05 590.1 375.58 598.18 376.06 605.91 376.56 613.25 377.03 620.36 377.57 627.07 378.1 633.38 378.64 639.21 379.11 644.65 379.55 649.72" style="fill:none; stroke:rgba(0,0,0,.5); stroke-width:.75px;"/><polyline points="328.59 198.38 327.58 198.38 326.67 198.38 325.85 198.38 325.13 198.24 324.4 198.05 323.77 197.83 323.27 197.62 322.83 197.36 322.54 197.13 322.35 196.89 322.26 196.58 322.26 196.28 322.26 195.94 322.48 195.64 323.11 195.35 324.06 195.09 325.35 194.86 326.92 194.65 328.91 194.41 331.33 194.1 334.2 193.77 337.6 193.32 341.5 192.76 345.88 192.07 350.8 191.2 356.24 190.16 362.29 188.95 369 187.56 376.21 186.05 383.93 184.42 392.09 182.6 400.4 180.71 408.91 178.68 417.79 176.5 426.89 174.24 436.56 171.83 446.67 169.32 457.06 166.77 467.52 164.17 478.01 161.5 488.72 158.81 499.52 156.12 510.73 153.38 522.2 150.5 533.44 147.52 544.72 144.4 555.87 141.21 566.98 138.07 578.23 134.98 589.28 131.95 599.87 129.02 610.04 126.26 619.8 123.66 629.16 121.18 638.17 118.87" style="fill:none; stroke:rgba(0,0,0,.49); stroke-width:.73px;"/><polyline points="533.54 139.51 533.09 139.44 532.62 139.39 532.15 139.3 531.74 139.28 531.39 139.23 531.14 139.23 530.89 139.23 530.7 139.23 530.57 139.23 530.45 139.23 530.39 139.23 530.39 139.28 530.57 139.58 531.14 140.01 531.93 140.48 533 141.05 534.42 141.73 536.06 142.44 538.04 143.27 540.24 144.21 542.7 145.23 545.44 146.41 548.37 147.71 551.61 148.98 555.14 150.33 558.98 151.7 563.2 153.09 567.71 154.7 572.59 156.38 577.91 158.24 583.65 160.23 589.79 162.33 596.4 164.57 603.08 166.94 610.01 169.35 617.19 171.87 624.59 174.43 632.4 176.98 640.53 179.6 648.84 182.22 657.35 184.89 665.57 187.58 673.69 190.28 681.69 193.04 689.54 195.83 697.47 198.57 705.38 201.28 712.97 203.93 720.28 206.5 727.36 209.15 733.94 211.87 740.28 214.68 746.32 217.49 752.12 220.25 757.85 222.92 763.46 225.47 768.84 227.91 774.07 230.24 779.02 232.44 783.65 234.54" style="fill:none; stroke:rgba(0,0,0,.46); stroke-width:.69px;"/><polyline points="541.03 108.64 540.91 108.78 540.72 108.92 540.65 109.06 540.65 109.25 540.65 109.49 540.65 109.82 540.65 110.2 540.65 110.65 540.81 111.21 541.06 111.83 541.28 112.58 541.5 113.41 541.69 114.33 541.94 115.37 542.2 116.53 542.45 117.78 542.73 119.17 543.08 120.76 543.36 122.53 543.71 124.49 543.93 126.69 544.09 128.98 544.18 131.41 544.24 133.96 544.34 136.7 544.4 139.58 544.5 142.68 544.59 146.01 544.65 149.39 544.78 153 544.91 156.78 545.06 160.7 545.22 164.95 545.35 169.37 545.5 174.07 545.6 179.03 545.66 184.18 545.69 189.66 545.69 195.28 545.69 201.05 545.69 207.05 545.69 213.21 545.6 219.59 545.57 226.11 545.5 232.7 545.38 239.39 545.28 246.07 545.16 252.85 545.03 259.82 545 266.95 544.87 274.35 544.81 281.95 544.75 289.63 544.62 297.43 544.53 305.41 544.4 313.58 544.28 322.04 544.15 330.61 543.96 339.26 543.8 347.98 543.65 356.79 543.49 365.62 543.3 374.57 543.14 383.6 542.98 392.43 542.76 401.31 542.61 410.24 542.45 419.08 542.32 428.06 542.29 436.89 542.23 445.65 542.17 454.44 542.1 463.39 542.01 472.46 541.85 481.65 541.76 490.77 541.57 499.82 541.44 509.01 541.35 518.13 541.19 527.29 541.13 536.34 541 545.17 540.91 553.91 540.87 562.54 540.81 571.06 540.78 579.4 540.75 587.46 540.65 595.3 540.65 602.95 540.65 610.39 540.65 617.76 540.65 624.87 540.65 631.77 540.65 638.43 540.65 644.81 540.69 651 540.72 656.93 540.72 662.67 540.72 668.1 540.72 673.23" style="fill:none; stroke:rgba(0,0,0,.51); stroke-width:.77px;"/><polyline points="329.57 603.57 332.91 602.53 336.59 601.35 340.69 600.14 345.22 598.8 369 589 355.77 595.32 362.1 592.91 369.28 590.01 406 575 396.18 579.31 406.26 575.31 439 561 427.8 566.62 439.27 561.92 451.49 557.13 463.9 552.35 476.37 547.54 488.97 542.67 501.63 537.8 514.61 532.82 527.46 527.88 539.93 523.04 552.06 518.2 563.8 513.47 575.33 508.84 586.76 504.38 597.57 500.15" style="fill:none; stroke:rgba(0,0,0,.35); stroke-width:.53px;"/><polyline points="542.7 121.61 542.7 121.75 542.7 121.91 542.7 122.13 542.7 122.48 542.76 122.98 542.83 123.52 542.83 124.2 542.86 124.96 542.86 125.83 542.89 126.85 542.98 127.91 543.05 129.09 543.17 130.51 543.3 132.07 543.39 133.91 543.46 136.04 543.58 138.43 543.58 141.14 543.58 144.28 543.58 147.69 543.58 151.46 543.58 155.57 543.49 159.94 543.33 164.74 543.17 169.91 542.92 175.42 542.73 181.32 542.57 187.56 542.48 194.1 542.48 200.83 542.45 207.85 542.45 215.17 542.45 222.78 542.45 230.76 542.45 238.91 542.45 247.23 542.54 255.85 542.64 264.76 542.76 274.06 542.86 283.8 542.98 293.62 543.11 303.69 543.24 314.06 543.3 324.66 543.43 335.62 543.61 346.87 543.87 358.3 544.15 369.99 544.46 381.97 544.78 393.92 545.09 405.92 545.47 417.92 545.85 429.97 546.26 441.92 546.7 453.87 547.14 465.87 547.61 477.8 548.06 489.76 548.46 501.73 548.84 513.64 549.16 525.61 549.57 537.54 549.98 549.33 550.39 560.98 550.73 572.31 550.98 583.42 551.05 594.07" style="fill:none; stroke:rgba(0,0,0,.52); stroke-width:.77px;"/><polyline points="543.2 512.27 542.89 512.08 542.64 511.89 542.48 511.77 542.39 511.72 542.32 511.7 542.29 511.7 542.23 511.7 542.54 511.89 542.92 512.2 543.49 512.62 544.24 513.12 545.13 513.71 546.23 514.39 547.49 515.17 549.03 516.09 550.8 517.11 552.87 518.24 555.27 519.54 557.88 520.96 560.91 522.61 564.37 524.43 568.15 526.32 572.43 528.28 577.13 530.36 582.1 532.56 587.33 534.97 592.81 537.59 598.45 540.28 604.28 543.07 610.39 545.93 616.72 548.88 623.49 552 630.57 555.28 637.94 558.71 645.57 562.25 653.35 565.84 661.22 569.43 668.91 573.05 676.46 576.66 683.87 580.37 691.2 584.17 698.67 588.09 706.07 591.9 713.44 595.7 720.62 599.48 727.68 603.31 734.39 607.28 740.72 611.29" style="fill:none; stroke:rgba(0,0,0,.5); stroke-width:.75px;"/><polyline points="625.47 223.2 625.47 223.46 625.47 223.72 625.6 223.96 625.82 224.24 626.01 224.62 626.17 225.09 626.26 225.69 626.32 226.39 626.48 227.29 626.61 228.33 626.8 229.56 626.98 230.95 627.14 232.51 627.39 234.31 627.65 236.29 627.93 238.58 628.31 241.18 628.72 244.13 629.13 247.44 629.5 251.2 629.79 255.35 629.98 259.98 630.1 265.09 630.13 270.69 630.13 276.73 630.13 283.18 630.13 289.94 630.13 297.05 630.13 304.56 630.13 312.54 630.13 321.14 630.13 330.26 630.13 339.78 630.13 349.84 630.13 360.38 630.13 371.41 630.13 383.06 630.13 395.03 629.94 407.39 629.72 420.14 629.47 432.97 629.28 446.22 629.06 459.78 628.91 473.62 628.81 487.7 628.75 502.11 628.75 516.76 628.75 531.47 628.75 546.61 628.75 561.94 628.75 577.2 628.75 592.65 628.75 608.17 628.75 623.5 628.75 639.05 628.75 654.57 628.75 670.09 628.75 685.42 628.75 700.65" style="fill:none; stroke:rgba(0,0,0,.55); stroke-width:.82px;"/><polyline points="440.28 163.87 440.09 163.58 439.9 163.25 439.68 162.87 439.49 162.5 439.27 162.07 438.98 161.65 438.7 161.24 438.45 160.84 438.2 160.42 437.98 159.99 437.76 159.57 437.44 159.14 437.19 158.72 436.81 158.34 436.34 157.96 435.9 157.58 435.43 157.2 434.98 156.85 434.51 156.5 434.1 156.21 433.76 155.95 433.41 155.76 433.22 155.6 433 155.53 432.94 155.46 433.35 155.48 433.98 155.74 434.8 156.17 435.87 156.69 437.19 157.3 438.86 158.03 440.78 158.88 442.98 159.83 445.54 160.87 448.31 162.05 451.49 163.35 455.05 164.83 459.02 166.44 463.39 168.24 468.02 170.17 472.81 172.32 477.85 174.61 483.11 177.02 488.75 179.57 494.89 182.2 501.47 184.94 508.37 187.8 515.74 190.8 523.43 193.91 531.24 197.06 539.24 200.15 547.33 203.22 555.58 206.27 564.28 209.46 573.25 212.69 582.51 216.07 591.9 219.5 601.03 222.94 610.1 226.42 619.08 229.82 627.9 233.22 636.94 236.55 645.88 239.88 654.76 243.28 663.2 246.5" style="fill:none; stroke:rgba(0,0,0,.45); stroke-width:.67px;"/><polyline points="506.73 366.26 506.95 366.21 507.43 366 508.02 365.72 508.91 365.36 510.01 364.96 511.36 364.46 513 363.9 514.95 363.28 517.22 362.6 519.77 361.82 522.7 360.92 526.01 359.86 529.82 358.63 534.13 357.21 538.89 355.58 544.09 353.74 549.72 351.76 555.83 349.58 562.51 347.15 569.69 344.53 577.22 341.69 585.09 338.72 593.25 335.65 601.35 332.53 609.5 329.39 617.66 326.2 625.76 323.01 634.13 319.84 642.42 316.68 650.67 313.61 658.83 310.61 666.48 307.72 673.91 304.96 681.09 302.27 688.09 299.62 695.2 296.88 702.23 294.07 709.19 291.17 716.02 288.24 722.67 285.43 729.13 282.76 735.08 280.18 740.62 277.75 745.69 275.46 750.32 273.33 754.64 271.28" style="fill:none; stroke:rgba(0,0,0,.34); stroke-width:.51px;"/><polyline points="628.12 230.34 628.12 230.27 628.12 230.24 628.12 230.2 628.12 230.15 628.12 230.13 628.12 230.1 627.96 230.1 627.8 230.1 627.65 230.1 627.46 230.1 627.3 230.1 627.11 230.2 626.92 230.31 626.73 230.53 626.48 230.83 626.23 231.21 626.01 231.66 625.72 232.2 625.38 232.82 625 233.55 624.53 234.4 624.06 235.35 623.52 236.43 622.86 237.61 622.07 238.94 621.06 240.52 619.74 242.39 618.17 244.54 616.4 246.8 614.45 249.14 612.43 251.57 610.29 254.1 607.96 256.94 605.38 260.1 602.51 263.6 599.2 267.47 595.58 271.72 591.68 276.31 587.43 281.22 582.95 286.37 578.32 291.64 573.57 296.88 568.65 302.15 563.68 307.49 558.61 312.97 553.44 318.66 548.31 324.47 543.02 330.38 537.66 336.43 532.28 342.31 526.92 348.09 521.79 353.81 516.75 359.43 511.93 365.1 507.2 370.75 502.61 376.25" style="fill:none; stroke:rgba(0,0,0,.5); stroke-width:.75px;"/><polyline points="611.51 223.58 611.42 223.39 611.29 223.18 611.16 222.92 611.1 222.73 611.03 222.55 611 222.39 611 222.29 611 222.15 611 222.05 611.19 222 611.45 221.92 611.83 221.92 612.18 221.89 612.63 221.89 613.2 221.89 613.84 221.89 614.61 221.97 615.5 222.23 616.43 222.52 617.51 222.94 618.73 223.44 620.04 224.13 621.54 224.95 623.2 225.92 625.02 227.11 627.06 228.45 629.3 230 631.66 231.74 634.18 233.72 636.93 235.88 639.9 238.17 643.28 240.62 646.99 243.13 651.01 245.71 655.13 248.45 659.31 251.37 663.56 254.43 667.81 257.67 672.22 260.94 676.81 264.26 681.6 267.66 686.43 271.05 691.41 274.51 696.36 277.98 701.28 281.41 706.19 284.86 711.11 288.29 716.09 291.66 720.82 294.9 725.38 298.06 729.66 301.09 733.59 304.07 737.39 307.02 741 309.89" style="fill:none; stroke:rgba(0,0,0,.48); stroke-width:.73px;"/><polyline points="349.66 268.58 349.85 269.13 350.07 269.72 350.51 270.38 351.11 271.09 351.87 271.96 352.94 272.98 354.42 274.3 356.53 276.05 359.65 278.27 363.83 280.98 369.25 284.2 390 295 382.83 291.45 390.45 295.42 398.42 299.41 406.45 303.57 414.83 308.1 423.49 312.76 432.15 317.67 440.94 322.7 449.28 327.43 457.09 331.82 464.43 335.76 471.24 339.24 478.07 342.4 485.38 345.71 493.19 349.04 501.35 352.44 509.13 355.84 515.9 358.72 521.44 361.25 525.91 363.33 529.76 365.13 533.22 366.73" style="fill:none; stroke:rgba(0,0,0,.43); stroke-width:.65px;"/><polyline points="360.12 289.04 360.21 288.71 360.53 288.26 360.94 287.65 361.47 286.91 362.07 286.04 362.76 285.02 363.61 283.91 364.53 282.61 365.6 281.1 366.86 279.45 368.24 277.58 369.85 275.43 371.74 273.05 373.85 270.33 376.24 267.35 378.83 264.19 381.6 260.86 384.56 257.43 387.71 253.89 391.02 249.92 394.54 245.76 398.26 241.35 402.1 236.67 406.01 232.06 409.82 227.24 413.57 222.28 417.31 217.28 421.09 212.29 425 207.54 428.91 202.68 432.87 197.86 436.94 193.11 440.87 188.31 444.75 183.83 448.5 179.53 452.09 175.35 455.65 171.38 459.11 167.6 462.39 164.08 465.54 160.87 468.43 157.94 471.02 155.29 473.38 152.91 475.39 150.66 477.13 148.58" style="fill:none; stroke:rgba(0,0,0,.4); stroke-width:.6px;"/><polyline points="508.09 448.63 508.06 448.63 508.02 448.63 508.02 448.54 508.02 448.37 508.09 448.16 508.4 447.94 508.72 447.73 509.16 447.47 509.88 447.17 510.73 446.76 511.83 446.31 513.22 445.8 514.86 445.13 516.84 444.4 519.14 443.48 521.85 442.35 525.06 441.09 528.72 439.65 532.84 438.09 537.31 436.42 542.01 434.62 546.95 432.64 552.28 430.51 558.17 428.22 564.62 425.67 571.77 422.88 579.46 419.72 587.71 416.27 596.24 412.58 605.03 408.8 614.07 404.98 623.3 401.01 632.91 396.94 642.86 392.62 652.84 388.2 662.57 383.83 672.09 379.51 681.31 375.4 690.29 371.31 699.33 367.35 708.18 363.47 716.87 359.79 725.31 356.39 733.19 353.24 740.62 350.29 747.68 347.41 754.32 344.6 760.84 341.88" style="fill:none; stroke:rgba(0,0,0,.45); stroke-width:.67px;"/><polyline points="347.9 366.35 348.06 366.21 348.5 366.09 349.03 366 349.6 365.88 350.26 365.83 350.83 365.76 351.39 365.69 351.96 365.65" style="fill:none; stroke:rgba(0,0,0,.07); stroke-width:.1px;"/><polyline points="355.43 366.05 355.36 365.98 355.17 365.81 354.95 365.69 354.76 365.55" style="fill:none; stroke:rgba(0,0,0,.03); stroke-width:.05px;"/><polyline points="364.59 353.48 364.31 353.81 364.15 354.14 364.12 354.5 364.12 354.87 364.12 355.32 364.15 355.87 364.43 356.46 364.87 357.12 365.47 357.83 366.23 358.61 367.27 359.48 368.62 360.45 370.26 361.56 372.24 362.81 374.57 364.2 377.54 365.93 381.41 368.2 386.39 371.17 392.65 375 399.9 379.54 407.87 384.54 416.46 389.93 425.69 395.62 435.61 401.55 446.23 407.65 457.35 413.79 467.96 419.88 478.2 425.72 487.8 431.13 496.65 436.02 505.28 440.31 513.28 444.24 520.62 447.83 527.27 451.11 533.13 454.11 538.17 456.71 542.45 458.98 546.07 460.94 549.06 462.57 551.61 463.87 553.76 464.91 555.46 465.73" style="fill:none; stroke:rgba(0,0,0,.42); stroke-width:.64px;"/><polyline points="359.08 355.2 358.89 355.18 358.76 355.16 358.67 355.13 358.67 355.11 358.7 355.11 359.02 355.11 359.55 355.35 360.28 355.7 361.31 356.29 362.95 357.24 365.28 358.63 368.59 360.59 372.97 363.21 378.39 366.5 384.91 370.39 392.43 374.88 400.59 379.87 409.19 385.09 418.13 390.5 427.27 396.02 436.69 401.55 446.39 407.06 456.06 412.37 465.19 417.35 473.72 422.01 481.57 426.28 488.81 430.23 495.83 433.82 502.83 437.06 509.76 440.08 516.46 443.01 523.02 445.91 528.97 448.82 534.26 451.63 538.73 454.25 542.32 456.57 545.13 458.5 547.3 460.16 548.87 461.46 549.98 462.45 550.57 463.23 550.57 463.65" style="fill:none; stroke:rgba(0,0,0,.37); stroke-width:.55px;"/><polyline points="505.85 508.63 505.19 508.8 504.53 508.98 503.93 509.2 503.39 509.41 503.02 509.57 502.7 509.67 502.54 509.72 502.51 509.72 502.54 509.72 503.05 509.69 503.77 509.43 504.84 509.06 506.35 508.54 508.18 507.83 510.48 506.98 513.25 505.94 516.37 504.69 520.06 503.22 524.21 501.57 528.81 499.77 533.85 497.83 539.11 495.64 544.72 493.13 550.76 490.3 557.44 487.09 564.91 483.59 573.13 479.86 582.01 475.82 591.39 471.54 600.94 467.06 610.7 462.43 620.75 457.77 631.08 453.17 641.88 448.46 652.91 443.69 663.68 438.85 674.17 433.94 684.59 429.24 694.83 424.68 705.06 420.19 715.2 415.8 724.97 411.52 734.01 407.46 742.57 403.72 750.7 400.18 758.45 396.76 766.1 393.38 773.44 390.05 780.4 386.86" style="fill:none; stroke:rgba(0,0,0,.44); stroke-width:.66px;"/><polyline points="365.98 412.18 365.38 412.44 364.75 412.54 364.02 412.54 363.2 412.54 362.35 412.13 361.5 411.59 360.59 410.83 359.65 410.01 358.8 409.16 358.04 408.31 357.44 407.53 357 406.94 356.87 406.58 356.87 406.54 357.13 406.8 357.57 407.17 358.17 407.53 358.83 407.93 359.71 408.35 360.65 408.87 361.57 409.46 362.48 410.13 363.33 410.88" style="fill:none; stroke:rgba(0,0,0,.1); stroke-width:.15px;"/><polyline points="351.61 406.25 351.36 405.99 351.24 405.85 351.24 405.8 351.11 405.8 351.05 405.8 350.95 405.8 350.92 405.8 350.92 405.92 351.39 406.37 352.43 407.17 354.23 408.38 356.97 410.15 360.91 412.56 366.1 415.72 372.62 419.76 380.4 424.56 389.03 429.78 398.17 435.14 407.2 440.48 415.9 445.72 424.21 450.76 432.18 455.62 440.02 460.18 447.77 464.39 455.36 468.47 462.86 472.49 470.1 476.5 477.16 480.54 484.12 484.56 491.05 488.55 498.2 492.8 505.28 497.06 511.83 501.31 517.54 505.25 522.2 508.51 526.07 511.16 529.76 513.12 533.57 514.75 537.5 516.38 541.66 518.41" style="fill:none; stroke:rgba(0,0,0,.47); stroke-width:.7px;"/><polyline points="508.21 673.04 508.21 672.99 508.02 672.99 507.9 672.99 507.77 672.85 507.74 672.69 507.74 672.43 507.74 672.09 507.83 671.76 508.18 671.39 508.62 670.98 509.28 670.54 510.2 669.94 511.43 669.26 512.97 668.41 514.89 667.37 517.09 666.17 519.74 664.75 522.8 663.14 526.39 661.3 530.51 659.17 535.05 656.76 540.06 654.02 545.69 650.95 551.96 647.62 559.11 643.8 567.08 639.66 575.8 635.22 585.22 630.54 594.92 625.82 604.81 620.98 614.89 615.97 625.22 610.87 635.96 605.76 647.11 600.76 658.23 595.65 669.03 590.53 679.65 585.33 690.01 580.06 700.24 575.08 710.48 570.24 720.53 565.51 730.01 561.02 739.02 556.75 747.46 552.76 755.43 549.14 763.2 545.67 770.48 542.36" style="fill:none; stroke:rgba(0,0,0,.51); stroke-width:.76px;"/><polyline points="512.5 666 511.36 666.4 510.2 666.76 509.09 667.13 508.15 667.54 507.27 667.91 506.54 668.24 506.01 668.48 505.66 668.65 505.44 668.72 505.38 668.74 505.44 668.62 505.82 668.34 506.32 667.96 506.98 667.56 507.87 667.09 508.91 666.54 510.2 665.95 511.77 665.2 513.79 664.35 516.21 663.35 519.11 662.24 522.42 660.94 526.23 659.46 530.45 657.73 534.95 655.77 539.77 653.62 544.87 651.26 550.42 648.66 556.72 645.8 563.77 642.45 571.58 638.74 580.06 634.72 589.03 630.45 598.13 626.08 607.2 621.57 616.53 616.87 625.98 612.09 635.83 607.3 645.91 602.55 655.99 597.78 665.5 592.96 674.61 588.21 683.3 583.46 691.71 579 700.15 574.72 708.43 570.59 716.62 566.6 724.59 562.72 732.02 559.02 739.08 555.57 745.69 552.4 751.96 549.54 758.04 546.92 763.77 544.44 769.09 542.08 773.69 539.76" style="fill:none; stroke:rgba(0,0,0,.51); stroke-width:.77px;"/><polyline points="376.28 559.96 375.8 559.61 375.36 559.23 374.95 558.83 374.57 558.43 374.23 558.02 373.85 557.62 373.41 557.22 372.84 556.84 372.4 556.51 371.93 556.2 371.46 555.87 371.05 555.54 370.54 555.12 369.94 554.65 369.35 554.15 368.75 553.68 368.18 553.2 367.74 552.8 367.39 552.54 367.2 552.4 367.17 552.35 367.3 552.35 368.09 552.78 369.57 553.7 371.83 555.26 375.02 557.57 379.08 560.76 384.06 564.71 389.91 569.39 396.4 574.54 403.27 579.99 410.32 585.59 417.44 591.12 424.53 596.55 431.68 601.8 438.7 606.78 445.63 611.57 452.43 616.25 459.3 620.91 466.29 625.63 473.25 630.4 480.31 635.27 487.39 640.42 494.76 645.94 502.32 651.78 509.6 657.76" style="fill:none; stroke:rgba(0,0,0,.37); stroke-width:.55px;"/><polyline points="521.22 667.98 525.25 671.67 528.69 674.24 532.18 675.99 535.8 677.29 539.49 678.47" style="fill:none; stroke:rgba(0,0,0,.25); stroke-width:.38px;"/><polyline points="573.13 339.66 573 339.8 572.91 339.92 572.91 340.09 572.91 340.37 572.91 340.77 572.91 341.34 572.94 342.02 573.16 342.78 573.38 343.63 573.63 344.57 573.85 345.61 574.01 346.7 574.17 347.88 574.35 349.11 574.48 350.48 574.7 352.02 574.86 353.88 575.02 356.13 575.11 358.84 575.17 362.08 575.2 365.81 575.2 369.99 575.2 374.65 575.2 379.75 575.2 385.35 575.2 391.35 575.2 397.77 575.2 404.69 575.2 412.11 575.17 420.05 574.98 428.53 574.83 437.27 574.64 446.39 574.39 455.93 574.07 465.87 573.72 476.34 573.38 487.09 573 498.14 572.65 509.57 572.31 521.39 572.09 533.65 571.93 546.26 571.83 559.16 571.83 572.43 571.83 585.78 571.83 599.39 571.96 613.16 572.28 626.86 572.59 640.91 572.91 655.11 573.28 669.43 573.76 683.76 574.32 698.06 574.92 712.28 575.61 726.21 576.24 740.13 576.91 753.85 577.57 767.29" style="fill:none; stroke:rgba(0,0,0,.46); stroke-width:.69px;"/><polyline points="673.94 297.9 673.94 298.09 673.94 298.39 673.98 298.89 674.07 299.53 674.2 300.33 674.29 301.3 674.35 302.36 674.48 303.52 674.57 304.8 674.7 306.19 674.86 307.7 675.02 309.4 675.2 311.27 675.49 313.32 675.87 315.61 676.28 318.24 676.72 321.33 677.06 325.02 677.35 329.27 677.5 334.16 677.6 339.61 677.6 345.43 677.63 351.71 677.63 358.44 677.63 365.53 677.63 373.16 677.63 381.24 677.5 389.6 677.31 398.39 677.06 407.69 676.84 417.43 676.62 427.8 676.43 438.4 676.28 449.31 676.06 460.72 675.9 472.56 675.77 484.91 675.58 497.81 675.43 511.13 675.27 524.91 675.08 538.94 674.92 553.25 674.76 567.83 674.64 582.35 674.54 597.26 674.51 612.26 674.51 627.09 674.51 642.09 674.51 657.02 674.61 671.88 674.89 686.46 675.24 700.8 675.71 714.78 676.21 728.17" style="fill:none; stroke:rgba(0,0,0,.45); stroke-width:.68px;"/><polyline points="517.57 442.58 517.57 442.46 517.57 442.39 517.5 442.35 517.41 442.32 517.28 442.32 517.22 442.28 517.19 442.25 517.13 442.25 517.06 442.25 516.94 442.28 516.84 442.42 516.81 442.58 516.75 442.77 516.75 442.96 516.72 443.17 516.62 443.41 516.62 443.72 516.62 444.02 516.62 444.28 516.62 444.54 516.62 444.73 516.62 444.9 516.62 445.11 516.62 445.3 516.62 445.49 516.62 445.72 516.62 445.91 516.62 446.17 516.62 446.43 516.62 446.67 516.62 446.93 516.62 447.17 516.69 447.45 516.69 447.71 516.69 447.99 516.69 448.23 516.69 448.39 516.69 448.56 516.72 448.72 516.72 448.87 516.72 449.03 516.72 449.2 516.72 449.31 516.75 449.46 516.84 449.67 516.87 449.86 516.94 450.05 517.03 450.26 517.06 450.45 517.09 450.64 517.16 450.85 517.16 451.04 517.25 451.23 517.38 451.42 517.44 451.56 517.57 451.68 517.63 451.8 517.66 451.94 517.79 452.1 517.94 452.29 518.13 452.48 518.35 452.69 518.54 452.91 518.76 453.12 518.98 453.33 519.17 453.59 519.39 453.8 519.58 454.02 519.74 454.23 519.99 454.42 520.15 454.61 520.31 454.77 520.46 454.91 520.59 455.06 520.72 455.2 520.87 455.34 521.13 455.46 521.31 455.57 521.6 455.74 521.85 455.86 522.2 456.05 522.54 456.19 522.92 456.35 523.3 456.57 523.65 456.73 523.99 456.87 524.31 457.04 524.69 457.2 525 457.35 525.38 457.56 525.76 457.75 526.13 457.96 526.54 458.15 526.95 458.36 527.36 458.55 527.83 458.74 528.4 458.95 528.97 459.14 529.57 459.31 530.23 459.43 530.86 459.5 531.65 459.52 532.53 459.52 533.5 459.52 534.57 459.52 535.68 459.52 536.84 459.4 538.1 459.21 539.46 459.05 540.97 458.83 542.61 458.62 544.37 458.41 546.35 458.17 548.53 457.89 550.92 457.51 553.57 457.02 556.59 456.45 559.83 455.72 563.46 454.84 567.3 453.8 571.27 452.62 575.33 451.28 579.39 449.88 583.33 448.37" style="fill:none; stroke:rgba(0,0,0,.65); stroke-width:.97px;"/><polyline points="515.11 507.09 514.83 507.12 514.67 507.12 514.51 507.12 514.35 507.12 514.29 507.12 514.2 507.12 514.13 507.12 514.1 507 514.1 506.86 514.1 506.72 514.1 506.57 514.17 506.43 514.39 506.24 514.51 506.06 514.64 505.82 514.73 505.61 514.83 505.37 514.89 505.16 514.92 504.97 514.92 504.76 514.92 504.57 514.92 504.33 514.92 504.12 514.89 503.93 514.8 503.74 514.7 503.57 514.7 503.39 514.7 503.22 514.7 502.96 514.7 502.75 514.73 502.49 514.76 502.16 514.86 501.87 514.89 501.52 514.95 501.17 515.08 500.88 515.11 500.57 515.14 500.29 515.17 500.03 515.17 499.77 515.17 499.54 515.24 499.3 515.24 499.09 515.33 498.92 515.43 498.71 515.49 498.54 515.61 498.38 515.68 498.17 515.77 497.95 515.96 497.72 516.15 497.41 516.34 497.15 516.46 496.89 516.56 496.63 516.62 496.37 516.69 496.11 516.84 495.9 516.97 495.64 517.09 495.45 517.22 495.26 517.35 495.02 517.47 494.83 517.66 494.67 517.82 494.48 518.01 494.34 518.13 494.15 518.26 493.89 518.45 493.61 518.64 493.3 518.83 492.94 519.02 492.59 519.2 492.28 519.36 492 519.55 491.69 519.8 491.46 519.99 491.22 520.15 490.98 520.37 490.77 520.5 490.54 520.75 490.32 520.94 490.09 521.09 489.83 521.35 489.61 521.54 489.35 521.72 489.12 521.94 488.86 522.17 488.57 522.32 488.27 522.57 487.94 522.76 487.65 523.02 487.37 523.24 487.04 523.46 486.76 523.68 486.43 523.9 486.14 524.12 485.86 524.43 485.57 524.69 485.27 525.03 484.91 525.44 484.56 525.79 484.13 526.17 483.73 526.54 483.28 526.92 482.81 527.3 482.36 527.68 481.91 528.06 481.46 528.37 481.04 528.72 480.69 529.03 480.38 529.31 480.12 529.6 479.88 529.91 479.62 530.23 479.34 530.54 479.06 530.92 478.72 531.27 478.42 531.65 478.06 532.06 477.66 532.46 477.28 532.84 476.83 533.25 476.36 533.72 475.87 534.2 475.35 534.73 474.83 535.33 474.33 535.87 473.88 536.37 473.46 536.91 473.06 537.47 472.68 538.04 472.3 538.61 471.94 539.08 471.57 539.55 471.21 539.96 470.86 540.43 470.55 540.94 470.2 541.44 469.87 541.91 469.49 542.35 469.13 542.8 468.8 543.27 468.47 543.8 468.17 544.34 467.88 544.87 467.62 545.44 467.36 545.91 467.1 546.45 466.82 547.02 466.56 547.58 466.23 548.21 465.85 548.94 465.45 549.69 464.95 550.64 464.41 551.68 463.8 552.84 463.09 554.13 462.26 555.52 461.39 557.03 460.49 558.73 459.57 560.5 458.65 562.35 457.65 564.4 456.69 566.48 455.69 568.62 454.68 570.83 453.69 572.94 452.6 575.08 451.56 577.25 450.54 579.36 449.57 581.47 448.7 583.49 447.87 585.5 447.09 587.65 446.31 589.79 445.49 592.02 444.52 594.32 443.39" style="fill:none; stroke:rgba(0,0,0,.64); stroke-width:.96px;"/><polyline points="716.59 358.2 716.53 358.2 716.46 358.2 716.43 358.2 716.37 358.2 716.24 358.2 716.21 358.2 716.18 358.2 716.15 358.2 716.09 358.23 716.06 358.42 715.93 358.63 715.8 358.82 715.68 359.06 715.49 359.27 715.36 359.53 715.24 359.81 715.11 360.14 714.98 360.57 714.86 360.97 714.76 361.37 714.73 361.8 714.73 362.2 714.73 362.6 714.73 363.07 714.73 363.57 714.73 364.02 714.73 364.49 714.73 364.94 714.73 365.34 714.73 365.76 714.73 366.17 714.73 366.54 714.67 366.92 714.54 367.25 714.39 367.61 714.2 367.91 714.01 368.2 713.85 368.48 713.76 368.74 713.66 369.02 713.6 369.33 713.54 369.66 713.47 369.94 713.35 370.25 713.25 370.54 713.16 370.77 713.06 371.01 713.03 371.22 713 371.46 712.91 371.69 712.81 371.93 712.75 372.17 712.62 372.4 712.53 372.61 712.4 372.83 712.28 373.09 712.15 373.35 712.06 373.65 711.96 373.96 711.9 374.27 711.83 374.55 711.68 374.81 711.49 375.07 711.3 375.33 711.11 375.59 710.95 375.83 710.8 376.06 710.61 376.25 710.42 376.44 710.23 376.65 710.01 376.82 709.82 376.98 709.63 377.15 709.47 377.36 709.44 377.6 709.38 377.83 709.28 378.07 709.16 378.28 709.03 378.5 708.81 378.69 708.69 378.9 708.53 379.11 708.37 379.32 708.15 379.56 707.93 379.77 707.68 379.98 707.39 380.22 707.14 380.43 706.83 380.67 706.57 380.95 706.29 381.21 706.1 381.5 705.88 381.78 705.69 382.06 705.5 382.37 705.28 382.68 705.06 382.94 704.87 383.22 704.69 383.46 704.5 383.69 704.34 383.93 704.15 384.09 703.93 384.28 703.8 384.45 703.58 384.64 703.39 384.85 703.2 385.09 702.98 385.32 702.73 385.56 702.48 385.84 702.13 386.15 701.79 386.43 701.47 386.76 701.13 387.05 700.78 387.35 700.5 387.66 700.15 387.97 699.8 388.28 699.46 388.54 699.05 388.8 698.7 389.03 698.29 389.27 697.98 389.53 697.66 389.81 697.35 390.12 697.03 390.4 696.62 390.73 696.18 391.11 695.61 391.49 694.92 391.98 694.2 392.5 693.41 393.07 692.53 393.66 691.68 394.23 690.64 394.82 689.57 395.5 688.31 396.24 687.02 397.04 685.63 397.91 684.09 398.83 682.54 399.85 680.81 400.96 678.89 402.19 676.84 403.49 674.67 404.91 672.24 406.46 669.66 408.07 666.98 409.77 664.02 411.54 660.87 413.41 657.54 415.44 653.82 417.43" style="fill:none; stroke:rgba(0,0,0,.67); stroke-width:1px;"/><polyline points="716.18 419.39 716.15 419.39 716.06 419.39 715.96 419.39 715.87 419.39 715.71 419.39 715.52 419.34 715.36 419.27 715.2 419.2 715.08 419.1 715.05 419.03 715.02 418.96 714.95 418.84 714.92 418.77 714.83 418.65 714.73 418.56 714.7 418.46 714.67 418.35 714.67 418.25 714.64 418.2 714.64 418.13 714.61 418.04 714.61 417.99 714.61 417.83 714.57 417.71 714.57 417.57 714.57 417.38 714.57 417.19 714.57 416.93 714.57 416.62 714.57 416.39 714.57 416.13 714.57 415.82 714.67 415.63 714.7 415.32 714.73 415.09 714.76 414.94 714.76 414.73 714.76 414.54 714.76 414.33 714.76 414.12 714.8 413.91 714.8 413.74 714.8 413.48 714.86 413.29 714.86 413.08 714.89 412.8 714.92 412.58 714.92 412.3 714.95 412.02 714.95 411.78 714.95 411.52 714.95 411.33 714.95 411.14 714.95 410.95 714.92 410.79 714.83 410.62 714.64 410.43 714.57 410.29 714.45 410.13 714.35 409.91 714.26 409.72 714.2 409.56 714.1 409.39 714.04 409.25 713.94 409.11 713.85 408.94 713.76 408.83 713.6 408.73 713.47 408.66 713.35 408.64 713.22 408.61 713.09 408.57 712.97 408.52 712.81 408.45 712.75 408.38 712.56 408.26 712.4 408.12 712.21 407.98 712.02 407.79 711.87 407.67 711.71 407.53 711.49 407.39 711.33 407.29 711.11 407.17 710.89 407.1 710.64 407.03 710.39 406.98 710.13 406.94 709.88 406.91 709.63 406.89 709.35 406.87 709.13 406.82 708.81 406.75 708.53 406.61 708.21 406.49 707.87 406.32 707.55 406.2 707.14 406.13 706.8 406.06 706.42 406.02 706.01 405.97 705.66 405.94 705.28 405.92 704.94 405.9 704.53 405.85 704.12 405.8 703.61 405.71 703.05 405.61 702.51 405.54 701.82 405.4 701.03 405.31 700.09 405.24 698.95 405.21 697.6 405.21 696.09 405.21 694.35 405.21 692.37 405.45 690.2 405.78 687.8 406.23 685.25 406.87 682.45 407.5 679.43 408.28 676.31 409.25 672.78 410.29 669.06 411.59 665.09 413.03 660.84 414.64 656.53 416.48 651.9 418.39 647.05 420.47" style="fill:none; stroke:rgba(0,0,0,.66); stroke-width:.99px;"/><polyline points="420.91 557.6 420.62 557.81 420.34 558.09 420.12 558.31 419.9 558.45 419.68 558.61 419.49 558.71 419.36 558.83 419.3 558.99 419.2 559.13 419.14 559.32 419.08 559.54 419.08 559.72 419.08 560.01 419.08 560.48 419.74 561.35 420.94 562.77 422.98 564.87 426.13 567.9 430.51 571.89 436.21 576.85 443.05 582.59 450.76 588.85 459.14 595.42 467.55 602.08 475.87 608.6 483.99 614.88 491.71 620.6 499.24 625.7 506.54 630.26 513.5 634.32 520.37 638.36 527.3 642.66 534.1 647.29 540.84 652.28 547.39 657.45 553.66 662.57 559.68 667.54 565.31 672.02 570.64 675.97 575.55 679.37 580.15 682.2 584.46 684.66 588.53 686.88 592.28 688.96 595.83 690.97 599.02 692.88 601.72 694.63 603.93 696.21" style="fill:none; stroke:rgba(0,0,0,.44); stroke-width:.67px;"/><polyline points="516.34 521.39 516.02 521.67 515.77 521.88 515.55 522.05 515.36 522.14 515.2 522.21 515.08 522.24 515.02 522.31 515.02 522.43 515.02 522.71 515.33 523.2 516.24 524.03 517.63 525.26 519.71 526.87 522.45 528.9 525.82 531.21 534.45 536.67 539.36 539.67 544.69 542.83 550.57 546.09 557.16 549.54 564.56 553.2 589 565 589.63 565.65 598.13 570.28 606.54 575.08 614.95 579.94 623.49 584.83" style="fill:none; stroke:rgba(0,0,0,.43); stroke-width:.65px;"/><polyline points="665.76 609.59 672.24 614.17 677.82 618.45 682.61 622.32 686.89 625.65 690.67 628.37 693.98 630.5 696.87 632.13" style="fill:none; stroke:rgba(0,0,0,.13); stroke-width:.2px;"/><polyline points="425.66 587.88 425.69 587.88 425.69 587.67 425.69 587.39 425.69 587.03 425.69 586.54 425.69 585.92 425.69 585.14 425.69 584.17 425.69 583.02 425.63 581.69 425.47 580.13 425.25 578.36 425.09 576.33 424.91 573.92 424.69 571.18 424.5 568.06 424.31 564.52 424.09 560.72 423.87 556.61 423.68 552.24 423.43 547.56 423.17 542.55 422.95 537.12 422.73 531.05 422.48 524.46 422.2 517.32 421.91 509.91 421.63 502.37 421.41 494.67 421.16 486.73 420.94 478.28 420.75 469.51 420.53 460.61 420.37 451.63 420.21 442.8 420.09 433.87 419.93 424.72 419.8 415.61 419.65 406.63 419.52 397.89 419.43 389.41 419.36 380.86 419.36 372.28 419.36 363.9 419.36 355.84 419.33 348.24 419.27 341.03 419.17 333.92 419.05 326.91" style="fill:none; stroke:rgba(0,0,0,.45); stroke-width:.67px;"/><polyline points="352.31 389.36 351.9 389.48 351.46 389.62 351.08 389.76 350.7 389.95 350.29 390.05 350.01 390.09 349.72 390.09 349.63 390.09 349.72 390 350.1 389.76 350.7 389.5 351.55 389.17 352.65 388.8 354.04 388.3 355.77 387.73 357.82 387.07 360.31 386.29 363.27 385.37 366.67 384.28 370.51 383.08 374.7 381.71 379.24 380.2 384.02 378.59 389.03 376.84 394.23 374.95 399.65 372.99 405.13 370.84 410.83 368.53 416.87 366.02 423.33 363.31 430.39 360.52 437.88 357.78 445.5 355.06 453.09 352.44 460.43 349.89 467.27 347.22 473.82 344.67 479.99 342.12" style="fill:none; stroke:rgba(0,0,0,.42); stroke-width:.63px;"/><polyline points="347.49 362.57 347.33 362.57 347.2 362.57 347.11 362.57 347.11 362.53 347.24 362.34 347.68 362.13 348.34 361.91 349.22 361.68 350.29 361.42 351.61 361.06 353.19 360.54 355.08 359.91 357.31 359.13 359.93 358.25 362.92 357.33 366.32 356.24 370.1 355.16 374.17 353.98 378.57 352.68 383.27 351.35 388.18 349.94 393.5 348.33 399.17 346.58 405.06 344.6 411.36 342.43 417.88 340.18 424.69 337.91 431.93 335.67 439.33 333.38 446.73 331.04 454.07 328.72" style="fill:none; stroke:rgba(0,0,0,.39); stroke-width:.59px;"/><polyline points="340.4 426.24 340.18 426.31 340.12 426.35 340.06 426.4 340.06 426.43 340.37 426.43 340.91 426.35 341.6 426.12 342.51 425.79 343.71 425.39 345.06 424.91 346.7 424.3 348.59 423.59 350.76 422.76 353.38 421.75 356.34 420.54 359.77 419.17 363.68 417.59 368.02 415.75 372.81 413.76 378.01 411.64 383.49 409.42 389.25 407.2 395.2 404.93 401.28 402.66 407.2 400.42 413.16 398.13 419.05 395.81 424.97 393.35 431.11 390.9 437.22 388.56 443.24 386.29 449 384.21 454.48 382.25" style="fill:none; stroke:rgba(0,0,0,.39); stroke-width:.58px;"/><polyline points="424.24 395.29 424.12 395.29 423.96 395.29" style="fill:none; stroke:rgba(0,0,0,.21); stroke-width:.31px;"/><polyline points="368.02 354.71 367.9 354.43 367.8 354.14 367.74 353.91 367.71 353.69 367.68 353.53 367.58 353.41 367.55 353.34 367.46 353.27 367.43 353.27 367.39 353.27 367.39 353.39 367.39 353.65 367.39 353.95 367.39 354.28 367.27 354.69 367.14 355.04 367.02 355.39 366.92 355.8 366.83 356.13 366.76 356.55 366.73 357.02 366.7 357.5 366.64 357.99 366.54 358.51 366.48 359.08 366.48 359.67 366.48 360.31 366.48 360.92 366.48 361.56 366.48 362.17 366.57 362.76 366.76 363.35 366.92 363.9 367.08 364.39 367.3 364.94 367.43 365.43 367.61 365.91 367.87 366.35 368.09 366.8 368.4 367.25 368.72 367.68 369.03 368.15 369.41 368.67 369.76 369.17 370.1 369.69 370.45 370.16 370.83 370.63 371.17 371.03 371.49 371.41 371.9 371.79 372.24 372.09 372.65 372.43 373.09 372.69 373.54 372.94 373.94 373.13 374.35 373.35 374.76 373.46 375.2 373.58 375.71 373.68 376.28 373.82 376.97 374.01 377.72 374.2 378.54 374.36 379.39 374.5 380.24 374.55 381.16 374.57 382.1 374.57 383.11 374.57 384.12 374.6 385.19 374.6 386.42 374.6 387.68 374.5 389.16 374.22 390.8 373.82 392.56 373.32 394.54 372.73 396.65 372.05 398.86 371.31 401.25 370.56 403.68 369.71 406.17 368.79 408.69 367.82 411.08 366.71 413.47 365.62 415.9 364.46 418.26 363.21 420.65 361.94 423.11 360.54 425.44 359.06" style="fill:none; stroke:rgba(0,0,0,.62); stroke-width:.94px;"/><polyline points="366.64 418.28 366.51 418.28 366.42 418.28 366.32 418.23 366.29 418.11 366.23 417.99 366.17 417.83 366.13 417.71 366.04 417.57 365.98 417.4 365.94 417.26 365.94 417.09 365.94 416.91 365.94 416.76 365.94 416.6 365.94 416.46 365.94 416.31 365.94 416.17 365.94 415.98 365.94 415.77 365.94 415.51 365.94 415.23 365.94 414.92 365.94 414.61 365.94 414.28 365.94 413.95 365.94 413.6 365.94 413.27 365.94 412.96 365.94 412.68 365.94 412.39 365.94 412.11 366.04 411.83 366.2 411.52 366.32 411.24 366.45 410.93 366.57 410.6 366.61 410.24 366.67 409.87 366.73 409.49 366.8 409.09 366.83 408.73 366.89 408.28 366.92 407.88 366.95 407.53 366.95 407.2 366.98 406.91 366.98 406.65 367.05 406.39 367.05 406.13 367.14 405.9 367.27 405.59 367.39 405.28 367.55 404.98 367.74 404.6 367.93 404.2 368.18 403.8 368.43 403.35 368.69 402.87 368.87 402.4 369.06 401.98 369.25 401.57 369.41 401.24 369.54 400.96 369.66 400.63 369.82 400.3 369.94 399.99 370.04 399.66 370.17 399.38 370.26 399.12 370.45 398.81 370.61 398.5 370.83 398.15 371.02 397.77 371.24 397.39 371.49 397.02 371.74 396.64 371.99 396.26 372.21 395.88 372.4 395.5 372.59 395.2 372.81 394.91 373.09 394.63 373.41 394.37 373.72 394.09 373.98 393.73 374.23 393.43 374.45 393.09 374.64 392.74 374.92 392.43 375.24 392.06 375.58 391.63 376.02 391.13 376.4 390.61 376.81 390.05 377.25 389.41 377.72 388.82 378.29 388.2 378.89 387.64 379.55 387.14 380.21 386.65 380.94 386.2 381.72 385.7 382.57 385.18 383.52 384.64 384.56 384.07 385.72 383.48 387.05 382.84 388.43 382.13 389.94 381.33 391.61 380.41 393.41 379.44 395.36 378.35 397.47 377.15 399.65 375.87 402.04 374.5 404.56 373.09 407.14 371.57 409.85 369.99 412.59 368.29 415.39 366.52 418.29 364.75" style="fill:none; stroke:rgba(0,0,0,.62); stroke-width:.93px;"/><polyline points="520.28 657.12 520.28 657.07 520.28 657 520.28 656.93 520.28 656.86 520.15 656.79 520.02 656.72 519.9 656.62 519.8 656.55 519.74 656.53 519.74 656.5 519.71 656.5 519.68 656.6 519.65 656.86 519.52 657.21 519.39 657.61 519.24 658.04 519.08 658.49 518.95 658.98 518.86 659.46 518.8 659.93 518.73 660.43 518.64 660.9 518.64 661.42 518.64 661.89 518.64 662.39 518.64 662.86 518.64 663.38 518.73 663.92 518.89 664.44 518.98 664.98 519.11 665.48 519.24 665.95 519.3 666.43 519.46 666.85 519.49 667.25 519.52 667.61 519.55 667.91 519.55 668.22 519.55 668.5 519.58 668.81 519.61 669.12 519.71 669.4 519.83 669.71 519.93 669.99 520.02 670.28 520.15 670.56 520.24 670.8 520.43 671.06 520.59 671.31 520.78 671.55 521.09 671.83 521.31 672.07 521.6 672.28 521.82 672.5 522.07 672.69 522.32 672.9 522.61 673.11 522.89 673.3 523.2 673.51 523.49 673.72 523.77 673.91 524.09 674.2 524.31 674.43 524.56 674.69 524.91 674.98 525.19 675.21 525.47 675.43 525.82 675.61 526.07 675.8 526.42 675.99 526.73 676.18 527.05 676.35 527.36 676.44 527.71 676.54 528.12 676.61 528.53 676.72 528.84 676.84 529.19 676.96 529.54 677.13 529.88 677.27 530.29 677.41 530.76 677.57 531.2 677.72 531.71 677.86 532.31 677.95 532.94 678.05 533.63 678.14 534.39 678.17 535.17 678.21 535.99 678.21 536.75 678.21 537.54 678.21 538.39 678.21 539.2 678.21 540.15 678.21 541.13 678.17 542.07 678.07 543.11 677.95 544.15 677.79 545.31 677.55 546.61 677.24 548.02 676.84 549.6 676.3 551.33 675.64 553.19 674.79 555.24 673.8 557.41 672.69 559.68 671.34 562.07 669.85 564.69 668.17 567.39 666.31 570.26 664.35 573.13 662.31 575.96 660.19" style="fill:none; stroke:rgba(0,0,0,.63); stroke-width:.94px;"/><polyline points="710.7 566.48 710.64 566.48 710.64 566.55 710.64 566.6 710.64 566.65 710.61 566.65 710.61 566.67 710.57 566.67 710.45 566.67 710.35 566.67 710.26 566.67 710.23 566.67 710.17 566.67 710.13 566.67 710.07 566.81 710.04 566.95 709.98 567.17 709.91 567.35 709.85 567.57 709.79 567.73 709.76 567.92 709.69 568.16 709.6 568.37 709.5 568.58 709.38 568.82 709.25 568.98 709.13 569.22 709 569.55 708.91 569.88 708.75 570.28 708.65 570.69 708.53 571.04 708.37 571.39 708.21 571.77 708.06 572.1 707.93 572.41 707.87 572.67 707.8 572.91 707.74 573.14 707.68 573.33 707.58 573.47 707.46 573.64 707.39 573.78 707.3 573.94 707.3 574.11 707.27 574.3 707.27 574.51 707.24 574.77 707.2 575.06 707.14 575.31 707.08 575.57 707.02 575.81 706.98 576.07 706.92 576.33 706.86 576.61 706.76 576.87 706.64 577.16 706.48 577.39 706.32 577.65 706.2 577.91 706.04 578.13 705.85 578.39 705.72 578.65 705.57 578.93 705.47 579.21 705.44 579.52 705.38 579.83 705.31 580.09 705.22 580.37 705.09 580.61 704.97 580.87 704.81 581.15 704.69 581.39 704.56 581.65 704.4 581.86 704.21 582.05 704.02 582.28 703.77 582.5 703.52 582.78 703.24 583.09 702.98 583.42 702.73 583.77 702.51 584.17 702.32 584.6 702.07 585.02 701.76 585.47 701.44 585.94 701 586.42 700.56 586.91 700.15 587.43 699.65 587.95 699.08 588.5 698.51 589.06 697.85 589.65 697.13 590.31 696.37 591.09 695.49 591.9 694.57 592.82 693.6 593.74 692.53 594.66 691.43 595.65 690.23 596.72 688.81 597.87 687.33 599.1 685.66 600.4 683.77 601.68 681.72 602.98 679.52 604.42 677.06 605.88" style="fill:none; stroke:rgba(0,0,0,.59); stroke-width:.89px;"/><polyline points="373.57 553.61 373.6 553.49 373.76 553.44 373.82 553.37 373.88 553.28 373.88 553.2 373.88 553.11 373.88 553.04 373.88 552.97 373.88 552.87 373.72 552.83 373.6 552.78 373.47 552.76 373.44 552.69 373.35 552.64 373.31 552.54 373.31 552.5 373.31 552.54 373.31 552.59 373.31 552.64 373.31 552.66 373.28 552.66 373.19 552.71 373.13 552.8 373.03 552.9 372.94 553.04 372.87 553.2 372.84 553.37 372.78 553.56 372.75 553.84 372.69 554.1 372.69 554.39 372.69 554.74 372.69 555.07 372.69 555.47 372.69 555.9 372.69 556.32 372.69 556.72 372.69 557.1 372.69 557.48 372.69 557.86 372.69 558.19 372.69 558.5 372.81 558.87 372.91 559.25 373 559.58 373.16 559.98 373.25 560.36 373.38 560.74 373.47 561.21 373.54 561.66 373.57 562.06 373.66 562.51 373.72 562.91 373.82 563.34 373.98 563.76 374.07 564.17 374.23 564.59 374.35 564.9 374.45 565.18 374.61 565.49 374.73 565.75 374.92 566.01 375.2 566.31 375.39 566.55 375.65 566.81 375.87 567.12 376.06 567.43 376.31 567.78 376.59 568.16 376.81 568.51 377.03 568.87 377.25 569.24 377.54 569.6 377.79 569.95 378.07 570.26 378.35 570.59 378.57 570.83 378.86 571.09 379.17 571.35 379.46 571.56 379.74 571.77 380.06 572.01 380.37 572.29 380.78 572.57 381.19 572.88 381.6 573.14 382.01 573.4 382.51 573.61 383.05 573.85 383.68 574.09 384.4 574.28 385.09 574.46 385.85 574.58 386.67 574.68 387.49 574.82 388.4 574.94 389.47 575.01 390.57 575.06 391.9 575.06 393.31 575.06 394.86 575.06 396.53 575.06 398.26 575.06 400.12 574.94 402.13 574.72 404.21 574.35 406.57 573.9 408.97 573.31 411.49 572.53 414.23 571.56 417.06 570.31" style="fill:none; stroke:rgba(0,0,0,.6); stroke-width:.9px;"/><polyline points="368.34 563.93 367.99 563.67 367.74 563.46 367.61 563.31 367.49 563.17 367.36 563.17 367.27 563.17 367.2 563.17 367.2 563.34 367.3 563.74 367.77 564.38 368.62 565.28 369.85 566.53 371.55 568.23 373.82 570.4 376.69 573.14 380.21 576.43 384.56 580.18 389.85 584.5 396.15 589.23 403.17 594.52 410.8 600.26 418.89 606.45 427.43 613.09 436.5 619.89 445.79 626.55 454.98 632.95 463.74 638.91 471.77 644.48 479.17 649.8 486.1 654.9 492.69 659.76 499.3 664.46 505.91 669.05 512.4 673.49 518.83 677.74 525.03 681.69 530.98 685.35 536.46 688.65 541.28 691.84 545.6 694.72 549.31 697.3 552.65 699.57 555.65 701.36 558.1 702.85 560.09 704.03" style="fill:none; stroke:rgba(0,0,0,.43); stroke-width:.65px;"/><polyline points="364.43 410.03 364.5 410.03 364.53 410.03 364.59 410.03 364.65 410.03 364.69 410.1 364.69 410.29 364.69 410.48 364.69 410.67 364.69 410.91 364.69 411.12 364.69 411.31 364.69 411.52 364.69 411.69 364.59 411.9 364.56 412.11 364.5 412.37 364.5 412.68 364.5 413.08 364.5 413.55 364.5 414.28 364.59 415.18 364.78 416.31 365.06 417.71 365.28 419.34 365.47 421.28 365.69 423.52 365.91 426.02 366.07 428.74 366.2 431.74 366.29 435 366.29 438.64 366.29 442.54 366.29 446.69 366.29 451.16 366.29 455.98 366.29 461.31 366.29 467.17 366.39 473.39 366.54 479.86 366.73 486.38 366.98 493.04 367.3 499.91 367.68 507.12 368.09 514.65 368.59 522.4 369.13 530.08 369.72 537.47 370.29 544.56 370.76 551.43 371.17 558.26 371.52 565.04 371.77 571.61 372.09 577.77 372.31 583.39" style="fill:none; stroke:rgba(0,0,0,.44); stroke-width:.66px;"/><polyline points="365.38 368.43 365.31 368.6 365.31 369 365.54 369.52 366.29 370.18 367.52 371.1 369.16 372.33 371.39 373.94 374.29 376.04 377.82 378.59 382.17 381.64 387.2 384.99 392.94 388.58 399.24 392.41 405.72 396.4 412.34 400.54 419.05 404.79 425.79 409.06 432.87 413.34 440.12 417.57 447.46 421.87 455.05 426.21 462.83 430.56 470.57 434.93 478.54 439.23 486.7 443.5 494.95 447.9 503.52 452.34 511.83 456.76 519.49 460.98 526.26 464.86 532.02 468.31 536.87 471.35 541.03 473.93 544.69 476.22 548.02 478.3" style="fill:none; stroke:rgba(0,0,0,.36); stroke-width:.54px;"/><polyline points="625.66 236.31 625.57 236.31 625.35 236.2 625.13 236.03 624.97 235.84 624.78 235.65 624.62 235.51 624.4 235.37 624.24 235.3 624.12 235.25 624.02 235.2 623.96 235.18 623.9 235.18 623.83 235.18 623.77 235.18 623.61 235.18 623.52 235.2 623.17 235.46 622.86 235.82 622.45 236.34 621.91 236.88 621.38 237.57 620.75 238.37 620.02 239.24 619.17 240.28 618.32 241.46 617.28 242.72 616.24 244.13 615.11 245.69 613.91 247.32 612.62 249.07 611.24 250.94 609.6 252.9 607.71 255.12 605.47 257.65 602.92 260.5 599.99 263.74 596.78 267.26 593.41 271.06 589.88 275.06 586.13 279.19 582.2 283.46 578.1 287.95 573.76 292.49 569.38 297.17 564.87 302.03 560.28 307.11 555.71 312.54 551.27 318.24 546.89 324.02 542.61 329.76 538.32 335.34 534.01 340.61 529.82 345.61 525.72 350.36 521.85 354.97 518.2 359.55 514.7 363.97 511.36 368.2 508.34 372.05 505.47 375.47 502.89 378.47" style="fill:none; stroke:rgba(0,0,0,.48); stroke-width:.72px;"/><polyline points="713.38 415.7 713.38 415.51 713.41 415.28 713.41 415.04 713.47 414.83 713.47 414.64 713.47 414.54 713.47 414.43 713.47 414.4 713.47 414.38 713.47 414.43 713.47 414.61 713.47 414.85 713.47 415.13 713.47 415.42 713.47 415.65 713.47 416.01 713.47 416.39 713.47 416.79 713.47 417.33 713.47 417.92 713.57 418.63 713.72 419.53 713.88 420.64 714.13 422.01 714.35 423.59 714.64 425.46 714.86 427.56 715.08 429.94 715.24 432.61 715.36 435.5 715.49 438.78 715.52 442.3 715.52 446.2 715.52 450.57 715.46 455.31 715.11 460.68 714.76 466.49 714.39 472.63 714.04 479.01 713.66 485.5 713.31 491.98 713 498.69 712.62 505.7 712.28 513.02 711.87 520.7 711.43 528.38 711.11 535.84 710.86 542.95 710.7 549.9 710.64 556.8 710.51 563.67 710.45 570.45 710.45 576.87 710.45 582.83 710.45 588.12 710.45 592.87" style="fill:none; stroke:rgba(0,0,0,.47); stroke-width:.7px;"/><polyline points="512.15 636.85 514.8 636.26 517.47 635.74 520.24 635.27" style="fill:none; stroke:rgba(0,0,0,.12); stroke-width:.18px;"/><polyline points="562.7 622.82 569.5 620.27 576.91 617.5 584.84 614.43 593.28 610.98 602.1 607.2 611.24 603.19 620.81 599.01 631.02 594.54 641.82 589.91 653.06 585.12 664.24 580.3 675.24 575.65 686.1 571.06" style="fill:none; stroke:rgba(0,0,0,.12); stroke-width:.19px;"/><polyline points="562.45 668.76 562.32 668.67 562.17 668.57 562.07 668.5 561.88 668.39 561.76 668.31 561.63 668.24 561.5 668.17 561.47 668.17 561.44 668.27 561.41 668.41 561.38 668.6 561.35 668.76 561.28 668.93 561.28 669.09 561.28 669.24 561.22 669.35 561.16 669.5 561 669.57 560.84 669.64 560.69 669.69 560.5 669.76 560.31 669.85 560.09 669.94 559.87 670.04 559.74 670.2 559.58 670.39 559.46 670.63 559.36 670.94 559.27 671.2 559.17 671.43 559.17 671.65 559.17 671.83 559.17 671.95 559.36 672.02 559.74 672.02 560.4 672.02 561.38 671.76 562.7 671.1 564.46 670.2 566.76 669 569.47 667.56 572.69 665.88 576.34 663.92 580.4 661.77 585 659.43 590.01 656.83 595.46 654.05 601.13 651.09 607.08 648.02 613.28 644.67 619.8 641.08 626.64 637.28 633.66 633.28 640.75 629.34 647.8 625.44 654.64 621.61 661.25 617.83" style="fill:none; stroke:rgba(0,0,0,.49); stroke-width:.73px;"/><polyline points="367.47 558.66 367.25 558.73 367.19 558.78 367.12 558.82 367.12 558.85 367.44 558.85 367.97 558.78 368.67 558.54 369.58 558.21 370.78 557.81 372.13 557.34 373.77 556.72 375.66 556.01 377.83 555.19 380.45 554.17 383.41 552.97 386.84 551.6 390.75 550.01 395.09 548.17 399.88 546.19 405.08 544.06 410.56 541.84 416.32 539.62 422.27 537.35 428.35 535.08 434.27 532.84 440.23 530.55 446.12 528.23 452.04 525.78 458.18 523.32 464.29 520.98 470.3 518.71 476.07 516.64 481.55 514.68" style="fill:none; stroke:rgba(0,0,0,.39); stroke-width:.58px;"/></svg>